{
  "accessors": [
    {
      "bufferView": 2,
      "componentType": 5126,
      "count": 9705,
      "max": [
        1.665970802307129,
        1.2825000286102295,
        2.436499834060669
      ],
      "min": [
        -1.5859708786010742,
        -1.3350000381469727,
        -2.436500072479248
      ],
      "type": "VEC3"
    },
    {
      "bufferView": 2,
      "byteOffset": 116460,
      "componentType": 5126,
      "count": 9705,
      "max": [
        1.0,
        1.0,
        1.0
      ],
      "min": [
        -1.0,
        -1.0,
        -1.0
      ],
      "type": "VEC3"
    },
    {
      "bufferView": 0,
      "componentType": 5125,
      "count": 27984,
      "type": "SCALAR"
    },
    {
      "bufferView": 2,
      "byteOffset": 232920,
      "componentType": 5126,
      "count": 6828,
      "max": [
        1.665970802307129,
        1.2825000286102295,
        2.433499813079834
      ],
      "min": [
        -1.5859708786010742,
        -1.3250000476837158,
        -2.4165000915527344
      ],
      "type": "VEC3"
    },
    {
      "bufferView": 2,
      "byteOffset": 314856,
      "componentType": 5126,
      "count": 6828,
      "max": [
        1.0,
        1.0,
        1.0
      ],
      "min": [
        -1.0,
        -1.0,
        -1.0
      ],
      "type": "VEC3"
    },
    {
      "bufferView": 0,
      "byteOffset": 111936,
      "componentType": 5125,
      "count": 20922,
      "type": "SCALAR"
    },
    {
      "bufferView": 2,
      "byteOffset": 396792,
      "componentType": 5126,
      "count": 1149,
      "max": [
        1.5659713745117188,
        -0.5848231315612793,
        2.323744535446167
      ],
      "min": [
        0.9661455154418945,
        -1.3250000476837158,
        1.1834940910339355
      ],
      "type": "VEC3"
    },
    {
      "bufferView": 2,
      "byteOffset": 410580,
      "componentType": 5126,
      "count": 1149,
      "max": [
        1.0,
        1.0,
        1.0
      ],
      "min": [
        -1.0,
        -1.0,
        -1.0
      ],
      "type": "VEC3"
    },
    {
      "bufferView": 0,
      "byteOffset": 195624,
      "componentType": 5125,
      "count": 2886,
      "type": "SCALAR"
    },
    {
      "bufferView": 2,
      "byteOffset": 424368,
      "componentType": 5126,
      "count": 3205,
      "max": [
        1.562948226928711,
        -0.19099998474121094,
        1.9225244522094727
      ],
      "min": [
        1.2731876373291016,
        -0.5848231315612793,
        1.6172733306884766
      ],
      "type": "VEC3"
    },
    {
      "bufferView": 2,
      "byteOffset": 462828,
      "componentType": 5126,
      "count": 3205,
      "max": [
        1.0,
        1.0,
        1.0
      ],
      "min": [
        -1.0,
        -0.0004999892553314567,
        -1.0
      ],
      "type": "VEC3"
    },
    {
      "bufferView": 0,
      "byteOffset": 207168,
      "componentType": 5125,
      "count": 15792,
      "type": "SCALAR"
    },
    {
      "bufferView": 2,
      "byteOffset": 501288,
      "componentType": 5126,
      "count": 22008,
      "max": [
        1.3602886199951172,
        -0.22377347946166992,
        2.1214101314544678
      ],
      "min": [
        -1.1055631637573242,
        -0.8395575284957886,
        -1.2149748802185059
      ],
      "type": "VEC3"
    },
    {
      "bufferView": 2,
      "byteOffset": 765384,
      "componentType": 5126,
      "count": 22008,
      "max": [
        1.0,
        1.0,
        0.9998908042907715
      ],
      "min": [
        -1.0,
        -0.9999183416366577,
        -0.9999520778656006
      ],
      "type": "VEC3"
    },
    {
      "bufferView": 0,
      "byteOffset": 270336,
      "componentType": 5125,
      "count": 106671,
      "type": "SCALAR"
    },
    {
      "bufferView": 2,
      "byteOffset": 1029480,
      "componentType": 5126,
      "count": 4,
      "max": [
        1.4439659118652344,
        -0.14400005340576172,
        2.1650617122650146
      ],
      "min": [
        1.4439659118652344,
        -0.4540000557899475,
        1.3650617599487305
      ],
      "type": "VEC3"
    },
    {
      "bufferView": 2,
      "byteOffset": 1029528,
      "componentType": 5126,
      "count": 4,
      "max": [
        -1.0,
        0.0,
        0.0
      ],
      "min": [
        -1.0,
        0.0,
        0.0
      ],
      "type": "VEC3"
    },
    {
      "bufferView": 0,
      "byteOffset": 697020,
      "componentType": 5125,
      "count": 6,
      "type": "SCALAR"
    },
    {
      "bufferView": 2,
      "byteOffset": 1029576,
      "componentType": 5126,
      "count": 1582,
      "max": [
        1.002889633178711,
        -0.9569000005722046,
        1.2625699043273926
      ],
      "min": [
        1.002823829650879,
        -0.9899000525474548,
        1.2205698490142822
      ],
      "type": "VEC3"
    },
    {
      "bufferView": 2,
      "byteOffset": 1048560,
      "componentType": 5126,
      "count": 1582,
      "max": [
        0.00010000453767133877,
        1.0,
        1.0
      ],
      "min": [
        -1.0,
        -1.0,
        -1.0
      ],
      "type": "VEC3"
    },
    {
      "bufferView": 0,
      "byteOffset": 697044,
      "componentType": 5125,
      "count": 3261,
      "type": "SCALAR"
    },
    {
      "bufferView": 2,
      "byteOffset": 1067544,
      "componentType": 5126,
      "count": 570,
      "max": [
        1.0040063858032227,
        -1.0657354593276978,
        1.322127103805542
      ],
      "min": [
        1.0040063858032227,
        -1.0760645866394043,
        1.3140103816986084
      ],
      "type": "VEC3"
    },
    {
      "bufferView": 2,
      "byteOffset": 1074384,
      "componentType": 5126,
      "count": 570,
      "max": [
        -1.0,
        0.0,
        0.00039999998989515007
      ],
      "min": [
        -1.0,
        0.0,
        -0.00039999998989515007
      ],
      "type": "VEC3"
    },
    {
      "bufferView": 0,
      "byteOffset": 710088,
      "componentType": 5125,
      "count": 999,
      "type": "SCALAR"
    },
    {
      "bufferView": 2,
      "byteOffset": 1081224,
      "componentType": 5126,
      "count": 374,
      "max": [
        1.0034894943237305,
        -0.10043859481811523,
        1.2468700408935547
      ],
      "min": [
        -0.19068336486816406,
        -0.7142000198364258,
        1.1950387954711914
      ],
      "type": "VEC3"
    },
    {
      "bufferView": 2,
      "byteOffset": 1085712,
      "componentType": 5126,
      "count": 374,
      "max": [
        1.0,
        1.0,
        1.0
      ],
      "min": [
        -1.0,
        -1.0,
        -1.0
      ],
      "type": "VEC3"
    },
    {
      "bufferView": 0,
      "byteOffset": 714084,
      "componentType": 5125,
      "count": 1110,
      "type": "SCALAR"
    },
    {
      "bufferView": 2,
      "byteOffset": 1090200,
      "componentType": 5126,
      "count": 366,
      "max": [
        1.4559707641601563,
        1.1549999713897705,
        0.07841253280639648
      ],
      "min": [
        -1.1914191246032715,
        1.0850000381469727,
        -1.1565003395080566
      ],
      "type": "VEC3"
    },
    {
      "bufferView": 2,
      "byteOffset": 1094592,
      "componentType": 5126,
      "count": 366,
      "max": [
        1.0,
        1.0,
        1.0
      ],
      "min": [
        -1.0,
        -1.0,
        -1.0
      ],
      "type": "VEC3"
    },
    {
      "bufferView": 0,
      "byteOffset": 718524,
      "componentType": 5125,
      "count": 1083,
      "type": "SCALAR"
    },
    {
      "bufferView": 2,
      "byteOffset": 1098984,
      "componentType": 5126,
      "count": 69,
      "max": [
        1.0037899017333984,
        -0.6993000507354736,
        1.236069917678833
      ],
      "min": [
        -0.20692157745361328,
        -0.9169381260871887,
        -1.6341667175292969
      ],
      "type": "VEC3"
    },
    {
      "bufferView": 2,
      "byteOffset": 1099812,
      "componentType": 5126,
      "count": 69,
      "max": [
        1.0,
        1.0,
        1.0
      ],
      "min": [
        -1.0,
        -1.0,
        0.0
      ],
      "type": "VEC3"
    },
    {
      "bufferView": 0,
      "byteOffset": 722856,
      "componentType": 5125,
      "count": 120,
      "type": "SCALAR"
    },
    {
      "bufferView": 2,
      "byteOffset": 1100640,
      "componentType": 5126,
      "count": 2883,
      "max": [
        1.0086898803710938,
        -0.3369729518890381,
        1.246269941329956
      ],
      "min": [
        -0.2417740821838379,
        -0.7136000394821167,
        -0.13773298263549805
      ],
      "type": "VEC3"
    },
    {
      "bufferView": 2,
      "byteOffset": 1135236,
      "componentType": 5126,
      "count": 2883,
      "max": [
        0.8911122679710388,
        1.0,
        1.0
      ],
      "min": [
        -1.0,
        -1.0,
        -1.0
      ],
      "type": "VEC3"
    },
    {
      "bufferView": 0,
      "byteOffset": 723336,
      "componentType": 5125,
      "count": 6513,
      "type": "SCALAR"
    },
    {
      "bufferView": 2,
      "byteOffset": 1169832,
      "componentType": 5126,
      "count": 12,
      "max": [
        1.0038890838623047,
        -0.6887530088424683,
        1.410114049911499
      ],
      "min": [
        1.002889633178711,
        -0.9417530298233032,
        1.2181141376495361
      ],
      "type": "VEC3"
    },
    {
      "bufferView": 2,
      "byteOffset": 1169976,
      "componentType": 5126,
      "count": 12,
      "max": [
        0.0,
        0.0,
        1.0
      ],
      "min": [
        0.0,
        -1.0,
        -1.0
      ],
      "type": "VEC3"
    },
    {
      "bufferView": 0,
      "byteOffset": 749388,
      "componentType": 5125,
      "count": 18,
      "type": "SCALAR"
    },
    {
      "bufferView": 2,
      "byteOffset": 1170120,
      "componentType": 5126,
      "count": 4,
      "max": [
        -1.2304496765136719,
        0.7874252796173096,
        0.3364996910095215
      ],
      "min": [
        -1.3520030975341797,
        0.0980597734451294,
        -0.9435000419616699
      ],
      "type": "VEC3"
    },
    {
      "bufferView": 2,
      "byteOffset": 1170168,
      "componentType": 5126,
      "count": 4,
      "max": [
        0.984815776348114,
        -0.17360278964042664,
        0.0
      ],
      "min": [
        0.984815776348114,
        -0.17360278964042664,
        0.0
      ],
      "type": "VEC3"
    },
    {
      "bufferView": 0,
      "byteOffset": 749460,
      "componentType": 5125,
      "count": 6,
      "type": "SCALAR"
    },
    {
      "bufferView": 2,
      "byteOffset": 1170216,
      "componentType": 5126,
      "count": 106,
      "max": [
        1.5659713745117188,
        0.44599997997283936,
        1.3714168071746826
      ],
      "min": [
        -1.4340286254882813,
        -0.9619953632354736,
        -0.04067516326904297
      ],
      "type": "VEC3"
    },
    {
      "bufferView": 2,
      "byteOffset": 1171488,
      "componentType": 5126,
      "count": 106,
      "max": [
        0.00010000082693295553,
        1.0,
        1.0
      ],
      "min": [
        0.0,
        -1.0,
        -1.0
      ],
      "type": "VEC3"
    },
    {
      "bufferView": 0,
      "byteOffset": 749484,
      "componentType": 5125,
      "count": 285,
      "type": "SCALAR"
    },
    {
      "bufferView": 2,
      "byteOffset": 1172760,
      "componentType": 5126,
      "count": 48,
      "max": [
        1.365971565246582,
        0.8650000095367432,
        2.423499822616577
      ],
      "min": [
        -0.3340287208557129,
        -0.2850000858306885,
        2.3504998683929443
      ],
      "type": "VEC3"
    },
    {
      "bufferView": 2,
      "byteOffset": 1173336,
      "componentType": 5126,
      "count": 48,
      "max": [
        1.0,
        1.0,
        1.0
      ],
      "min": [
        -1.0,
        -1.0,
        -1.0
      ],
      "type": "VEC3"
    },
    {
      "bufferView": 0,
      "byteOffset": 750624,
      "componentType": 5125,
      "count": 96,
      "type": "SCALAR"
    },
    {
      "bufferView": 2,
      "byteOffset": 1173912,
      "componentType": 5126,
      "count": 11405,
      "max": [
        1.5248546600341797,
        -0.16000008583068848,
        2.0617730617523193
      ],
      "min": [
        -1.293853759765625,
        -0.815000057220459,
        -1.3970794677734375
      ],
      "type": "VEC3"
    },
    {
      "bufferView": 2,
      "byteOffset": 1310772,
      "componentType": 5126,
      "count": 11405,
      "max": [
        0.9999825954437256,
        1.0,
        1.0
      ],
      "min": [
        -1.0,
        -1.0,
        -1.0
      ],
      "type": "VEC3"
    },
    {
      "bufferView": 0,
      "byteOffset": 751008,
      "componentType": 5125,
      "count": 60261,
      "type": "SCALAR"
    },
    {
      "bufferView": 2,
      "byteOffset": 1447632,
      "componentType": 5126,
      "count": 551,
      "max": [
        0.8589153289794922,
        -1.3220000267028809,
        0.09213495254516602
      ],
      "min": [
        -0.4910140037536621,
        -1.3250000476837158,
        -0.5678186416625977
      ],
      "type": "VEC3"
    },
    {
      "bufferView": 2,
      "byteOffset": 1454244,
      "componentType": 5126,
      "count": 551,
      "max": [
        0.9983108043670654,
        0.0,
        0.9993908405303955
      ],
      "min": [
        -1.0,
        -0.2308117151260376,
        -0.9993908405303955
      ],
      "type": "VEC3"
    },
    {
      "bufferView": 0,
      "byteOffset": 992052,
      "componentType": 5125,
      "count": 2646,
      "type": "SCALAR"
    },
    {
      "bufferView": 2,
      "byteOffset": 1460856,
      "componentType": 5126,
      "count": 741,
      "max": [
        0.5535888671875,
        -0.3361968994140625,
        -0.04546308517456055
      ],
      "min": [
        -0.24744796752929688,
        -0.34344732761383057,
        -0.14176607131958008
      ],
      "type": "VEC3"
    },
    {
      "bufferView": 2,
      "byteOffset": 1469748,
      "componentType": 5126,
      "count": 741,
      "max": [
        0.45351481437683105,
        0.4229266941547394,
        0.7850998044013977
      ],
      "min": [
        -0.5202118158340454,
        0.4222908020019531,
        0.7421016097068787
      ],
      "type": "VEC3"
    },
    {
      "bufferView": 0,
      "byteOffset": 1002636,
      "componentType": 5125,
      "count": 1146,
      "type": "SCALAR"
    },
    {
      "bufferView": 2,
      "byteOffset": 1478640,
      "componentType": 5126,
      "count": 1584,
      "max": [
        0.6030902862548828,
        -0.40799564123153687,
        -0.04570198059082031
      ],
      "min": [
        -0.30074262619018555,
        -0.41965752840042114,
        -0.19313621520996094
      ],
      "type": "VEC3"
    },
    {
      "bufferView": 2,
      "byteOffset": 1497648,
      "componentType": 5126,
      "count": 1584,
      "max": [
        0.9977403879165649,
        1.0,
        0.9752393364906311
      ],
      "min": [
        -0.9997898936271667,
        -1.0,
        -0.9814596772193909
      ],
      "type": "VEC3"
    },
    {
      "bufferView": 0,
      "byteOffset": 1007220,
      "componentType": 5125,
      "count": 6018,
      "type": "SCALAR"
    },
    {
      "bufferView": 2,
      "byteOffset": 1516656,
      "componentType": 5126,
      "count": 495,
      "max": [
        0.590672492980957,
        -0.41560500860214233,
        -0.004088401794433594
      ],
      "min": [
        -0.2853083610534668,
        -0.48294633626937866,
        -0.18423032760620117
      ],
      "type": "VEC3"
    },
    {
      "bufferView": 2,
      "byteOffset": 1522596,
      "componentType": 5126,
      "count": 495,
      "max": [
        0.9773989319801331,
        0.42241206765174866,
        0.938164234161377
      ],
      "min": [
        -0.9773989319801331,
        -0.9063637256622314,
        -0.9381730556488037
      ],
      "type": "VEC3"
    },
    {
      "bufferView": 0,
      "byteOffset": 1031292,
      "componentType": 5125,
      "count": 1326,
      "type": "SCALAR"
    },
    {
      "bufferView": 2,
      "byteOffset": 1528536,
      "componentType": 5126,
      "count": 553,
      "max": [
        0.6415771842002869,
        -0.22528037428855896,
        -0.04900500923395157
      ],
      "min": [
        -0.3297809958457947,
        -0.37172070145606995,
        -0.2569299042224884
      ],
      "type": "VEC3"
    },
    {
      "bufferView": 2,
      "byteOffset": 1535172,
      "componentType": 5126,
      "count": 553,
      "max": [
        0.9773989319801331,
        0.9064351916313171,
        0.938164234161377
      ],
      "min": [
        -0.9773989319801331,
        -0.42241206765174866,
        -0.938164234161377
      ],
      "type": "VEC3"
    },
    {
      "bufferView": 3,
      "componentType": 5126,
      "count": 553,
      "max": [
        0.40083256363868713,
        0.9064083099365234,
        0.9247866868972778,
        1.0
      ],
      "min": [
        -0.9770317673683167,
        -0.9064669609069824,
        -0.9378045797348022,
        -1.0
      ],
      "type": "VEC4"
    },
    {
      "bufferView": 1,
      "componentType": 5126,
      "count": 553,
      "max": [
        1.0,
        1.0
      ],
      "min": [
        0.0,
        0.0
      ],
      "type": "VEC2"
    },
    {
      "bufferView": 1,
      "byteOffset": 4424,
      "componentType": 5126,
      "count": 553,
      "max": [
        1.0,
        1.0
      ],
      "min": [
        0.0,
        0.0
      ],
      "type": "VEC2"
    },
    {
      "bufferView": 1,
      "byteOffset": 8848,
      "componentType": 5126,
      "count": 553,
      "max": [
        1.0,
        1.0
      ],
      "min": [
        0.0,
        0.0
      ],
      "type": "VEC2"
    },
    {
      "bufferView": 1,
      "byteOffset": 13272,
      "componentType": 5126,
      "count": 553,
      "max": [
        1.0,
        1.0
      ],
      "min": [
        0.0,
        0.0
      ],
      "type": "VEC2"
    },
    {
      "bufferView": 0,
      "byteOffset": 1036596,
      "componentType": 5125,
      "count": 1293,
      "type": "SCALAR"
    },
    {
      "bufferView": 2,
      "byteOffset": 1541808,
      "componentType": 5126,
      "count": 2888,
      "max": [
        0.5342550277709961,
        -0.3469398617744446,
        -0.017563343048095703
      ],
      "min": [
        -0.2364659309387207,
        -0.40369248390197754,
        -0.1273207664489746
      ],
      "type": "VEC3"
    },
    {
      "bufferView": 2,
      "byteOffset": 1576464,
      "componentType": 5126,
      "count": 2888,
      "max": [
        0.9963915944099426,
        0.9885916709899902,
        0.997887134552002
      ],
      "min": [
        -0.9999411106109619,
        -0.9062809944152832,
        -0.7850925922393799
      ],
      "type": "VEC3"
    },
    {
      "bufferView": 0,
      "byteOffset": 1041768,
      "componentType": 5125,
      "count": 9378,
      "type": "SCALAR"
    },
    {
      "bufferView": 2,
      "byteOffset": 1611120,
      "componentType": 5126,
      "count": 5019,
      "max": [
        0.2813863754272461,
        0.4543468952178955,
        -1.5771069526672363
      ],
      "min": [
        -0.4798011779785156,
        -0.23241853713989258,
        -1.596107006072998
      ],
      "type": "VEC3"
    },
    {
      "bufferView": 2,
      "byteOffset": 1671348,
      "componentType": 5126,
      "count": 5019,
      "max": [
        1.0,
        1.0,
        1.0
      ],
      "min": [
        -1.0,
        -1.0,
        -0.0015000059502199292
      ],
      "type": "VEC3"
    },
    {
      "bufferView": 0,
      "byteOffset": 1079280,
      "componentType": 5125,
      "count": 12120,
      "type": "SCALAR"
    },
    {
      "bufferView": 2,
      "byteOffset": 1731576,
      "componentType": 5126,
      "count": 2660,
      "max": [
        0.39704322814941406,
        0.446868896484375,
        -1.5771069526672363
      ],
      "min": [
        -0.1993246078491211,
        0.03739297389984131,
        -1.596107006072998
      ],
      "type": "VEC3"
    },
    {
      "bufferView": 2,
      "byteOffset": 1763496,
      "componentType": 5126,
      "count": 2660,
      "max": [
        1.0,
        1.0,
        1.0
      ],
      "min": [
        -1.0,
        -1.0,
        -0.000900006212759763
      ],
      "type": "VEC3"
    },
    {
      "bufferView": 0,
      "byteOffset": 1127760,
      "componentType": 5125,
      "count": 6669,
      "type": "SCALAR"
    },
    {
      "bufferView": 2,
      "byteOffset": 1795416,
      "componentType": 5126,
      "count": 1054,
      "max": [
        0.4916563034057617,
        0.5026638507843018,
        -1.5771069526672363
      ],
      "min": [
        -0.5809636116027832,
        -0.16675543785095215,
        -1.596107006072998
      ],
      "type": "VEC3"
    },
    {
      "bufferView": 2,
      "byteOffset": 1808064,
      "componentType": 5126,
      "count": 1054,
      "max": [
        1.0,
        1.0,
        1.0
      ],
      "min": [
        -1.0,
        -1.0,
        -0.00010000110341934487
      ],
      "type": "VEC3"
    },
    {
      "bufferView": 0,
      "byteOffset": 1154436,
      "componentType": 5125,
      "count": 2682,
      "type": "SCALAR"
    },
    {
      "bufferView": 2,
      "byteOffset": 1820712,
      "componentType": 5126,
      "count": 627,
      "max": [
        1.665970802307129,
        1.3350000381469727,
        2.436499834060669
      ],
      "min": [
        -1.5340290069580078,
        -1.3350000381469727,
        -2.436500072479248
      ],
      "type": "VEC3"
    },
    {
      "bufferView": 2,
      "byteOffset": 1828236,
      "componentType": 5126,
      "count": 627,
      "max": [
        1.0,
        1.0,
        1.0
      ],
      "min": [
        -1.0,
        -1.0,
        -0.00010000039037549868
      ],
      "type": "VEC3"
    },
    {
      "bufferView": 0,
      "byteOffset": 1165164,
      "componentType": 5125,
      "count": 1671,
      "type": "SCALAR"
    },
    {
      "bufferView": 2,
      "byteOffset": 1835760,
      "componentType": 5126,
      "count": 597,
      "max": [
        0.3707551956176758,
        0.1424351930618286,
        -1.596107006072998
      ],
      "min": [
        -0.1720571517944336,
        -0.16001582145690918,
        -1.596107006072998
      ],
      "type": "VEC3"
    },
    {
      "bufferView": 2,
      "byteOffset": 1842924,
      "componentType": 5126,
      "count": 597,
      "max": [
        0.0,
        0.0003000000142492354,
        1.0
      ],
      "min": [
        0.0,
        -0.0003000000142492354,
        1.0
      ],
      "type": "VEC3"
    },
    {
      "bufferView": 0,
      "byteOffset": 1171848,
      "componentType": 5125,
      "count": 1035,
      "type": "SCALAR"
    },
    {
      "bufferView": 2,
      "byteOffset": 1850088,
      "componentType": 5126,
      "count": 745,
      "max": [
        0.46833229064941406,
        0.4867537021636963,
        -1.606107234954834
      ],
      "min": [
        -0.556389331817627,
        -0.21795403957366943,
        -1.636500358581543
      ],
      "type": "VEC3"
    },
    {
      "bufferView": 2,
      "byteOffset": 1859028,
      "componentType": 5126,
      "count": 745,
      "max": [
        1.0,
        1.0,
        0.00020000275981146842
      ],
      "min": [
        -1.0,
        -0.9993908405303955,
        -0.0004999999655410647
      ],
      "type": "VEC3"
    },
    {
      "bufferView": 0,
      "byteOffset": 1175988,
      "componentType": 5125,
      "count": 2235,
      "type": "SCALAR"
    },
    {
      "bufferView": 2,
      "byteOffset": 1867968,
      "componentType": 5126,
      "count": 4,
      "max": [
        0.5079708099365234,
        0.5203930139541626,
        -1.596107006072998
      ],
      "min": [
        -0.6030287742614746,
        0.5203930139541626,
        -1.606107234954834
      ],
      "type": "VEC3"
    },
    {
      "bufferView": 2,
      "byteOffset": 1868016,
      "componentType": 5126,
      "count": 4,
      "max": [
        0.0,
        1.0,
        0.0
      ],
      "min": [
        0.0,
        1.0,
        0.0
      ],
      "type": "VEC3"
    },
    {
      "bufferView": 0,
      "byteOffset": 1184928,
      "componentType": 5125,
      "count": 6,
      "type": "SCALAR"
    },
    {
      "bufferView": 2,
      "byteOffset": 1868064,
      "componentType": 5126,
      "count": 65533,
      "max": [
        1.370224952697754,
        -0.5518085956573486,
        2.2026305198669434
      ],
      "min": [
        -1.1711907386779785,
        -1.3225668668746948,
        -1.2616429328918457
      ],
      "type": "VEC3"
    },
    {
      "bufferView": 2,
      "byteOffset": 2654460,
      "componentType": 5126,
      "count": 65533,
      "max": [
        1.0,
        1.0,
        1.0
      ],
      "min": [
        -1.0,
        -1.0,
        -1.0
      ],
      "type": "VEC3"
    },
    {
      "bufferView": 0,
      "byteOffset": 1184952,
      "componentType": 5125,
      "count": 299340,
      "type": "SCALAR"
    },
    {
      "bufferView": 2,
      "byteOffset": 3440856,
      "componentType": 5126,
      "count": 27802,
      "max": [
        1.3699321746826172,
        -0.5518085956573486,
        2.197176218032837
      ],
      "min": [
        -1.1711907386779785,
        -1.32260000705719,
        -1.2613492012023926
      ],
      "type": "VEC3"
    },
    {
      "bufferView": 2,
      "byteOffset": 3774480,
      "componentType": 5126,
      "count": 27802,
      "max": [
        1.0,
        1.0,
        1.0
      ],
      "min": [
        -1.0,
        -1.0,
        -1.0
      ],
      "type": "VEC3"
    },
    {
      "bufferView": 0,
      "byteOffset": 2382312,
      "componentType": 5125,
      "count": 93699,
      "type": "SCALAR"
    },
    {
      "bufferView": 2,
      "byteOffset": 4108104,
      "componentType": 5126,
      "count": 3245,
      "max": [
        1.665970802307129,
        1.3350000381469727,
        2.433499813079834
      ],
      "min": [
        -1.5340290069580078,
        -1.3250000476837158,
        -1.7365002632141113
      ],
      "type": "VEC3"
    },
    {
      "bufferView": 2,
      "byteOffset": 4147044,
      "componentType": 5126,
      "count": 3245,
      "max": [
        1.0,
        1.0,
        1.0
      ],
      "min": [
        -1.0,
        -0.0003000000142492354,
        -1.0
      ],
      "type": "VEC3"
    },
    {
      "bufferView": 0,
      "byteOffset": 2757108,
      "componentType": 5125,
      "count": 7527,
      "type": "SCALAR"
    },
    {
      "bufferView": 2,
      "byteOffset": 4185984,
      "componentType": 5126,
      "count": 1260,
      "max": [
        0.5436191558837891,
        0.0016710758209228516,
        1.2962570190429688
      ],
      "min": [
        -0.3392939567565918,
        -0.09500002861022949,
        1.1203677654266357
      ],
      "type": "VEC3"
    },
    {
      "bufferView": 2,
      "byteOffset": 4201104,
      "componentType": 5126,
      "count": 1260,
      "max": [
        0.994102418422699,
        0.8992252349853516,
        0.984815776348114
      ],
      "min": [
        -0.9811853766441345,
        -0.8992252349853516,
        -0.9991738796234131
      ],
      "type": "VEC3"
    },
    {
      "bufferView": 0,
      "byteOffset": 2787216,
      "componentType": 5125,
      "count": 6348,
      "type": "SCALAR"
    },
    {
      "bufferView": 2,
      "byteOffset": 4216224,
      "componentType": 5126,
      "count": 34,
      "max": [
        0.5633506774902344,
        -0.02046990394592285,
        1.1425518989562988
      ],
      "min": [
        -0.24154186248779297,
        -0.1035301685333252,
        1.1137611865997314
      ],
      "type": "VEC3"
    },
    {
      "bufferView": 2,
      "byteOffset": 4216632,
      "componentType": 5126,
      "count": 34,
      "max": [
        0.34200000762939453,
        0.0,
        0.965928852558136
      ],
      "min": [
        -0.34200000762939453,
        0.0,
        -0.965928852558136
      ],
      "type": "VEC3"
    },
    {
      "bufferView": 0,
      "byteOffset": 2812608,
      "componentType": 5125,
      "count": 72,
      "type": "SCALAR"
    },
    {
      "bufferView": 2,
      "byteOffset": 4217040,
      "componentType": 5126,
      "count": 577,
      "max": [
        0.5234975814819336,
        -0.07410001754760742,
        1.2715747356414795
      ],
      "min": [
        -0.12542438507080078,
        -0.08474349975585938,
        1.2406516075134277
      ],
      "type": "VEC3"
    },
    {
      "bufferView": 2,
      "byteOffset": 4223964,
      "componentType": 5126,
      "count": 577,
      "max": [
        0.966010570526123,
        1.0,
        0.9659038782119751
      ],
      "min": [
        -0.34200456738471985,
        -1.0,
        -0.9659606218338013
      ],
      "type": "VEC3"
    },
    {
      "bufferView": 0,
      "byteOffset": 2812896,
      "componentType": 5125,
      "count": 1317,
      "type": "SCALAR"
    },
    {
      "bufferView": 2,
      "byteOffset": 4230888,
      "componentType": 5126,
      "count": 5530,
      "max": [
        0.5811853408813477,
        -0.012000083923339844,
        1.2898588180541992
      ],
      "min": [
        -0.2616767883300781,
        -0.14903998374938965,
        1.1054446697235107
      ],
      "type": "VEC3"
    },
    {
      "bufferView": 2,
      "byteOffset": 4297248,
      "componentType": 5126,
      "count": 5530,
      "max": [
        0.9999350309371948,
        1.0,
        0.9999350309371948
      ],
      "min": [
        -0.9999711513519287,
        -1.0,
        -0.9986386895179749
      ],
      "type": "VEC3"
    },
    {
      "bufferView": 0,
      "byteOffset": 2818164,
      "componentType": 5125,
      "count": 30498,
      "type": "SCALAR"
    },
    {
      "bufferView": 2,
      "byteOffset": 4363608,
      "componentType": 5126,
      "count": 22032,
      "max": [
        1.569814682006836,
        0.8849999904632568,
        1.0786511898040771
      ],
      "min": [
        1.510951042175293,
        -0.2950000762939453,
        0.7260575294494629
      ],
      "type": "VEC3"
    },
    {
      "bufferView": 2,
      "byteOffset": 4627992,
      "componentType": 5126,
      "count": 22032,
      "max": [
        0.9650379419326782,
        1.0,
        0.9999033808708191
      ],
      "min": [
        -1.0,
        -1.0,
        -0.9933053851127625
      ],
      "type": "VEC3"
    },
    {
      "bufferView": 0,
      "byteOffset": 2940156,
      "componentType": 5125,
      "count": 55473,
      "type": "SCALAR"
    },
    {
      "bufferView": 2,
      "byteOffset": 4892376,
      "componentType": 5126,
      "count": 82,
      "max": [
        1.5649709701538086,
        -1.2649999856948853,
        2.433499813079834
      ],
      "min": [
        -1.4330286979675293,
        -1.3250000476837158,
        -1.6354999542236328
      ],
      "type": "VEC3"
    },
    {
      "bufferView": 2,
      "byteOffset": 4893360,
      "componentType": 5126,
      "count": 82,
      "max": [
        1.0,
        9.999999747378752e-05,
        1.0
      ],
      "min": [
        -1.0,
        -9.999999747378752e-05,
        -1.0
      ],
      "type": "VEC3"
    },
    {
      "bufferView": 0,
      "byteOffset": 3162048,
      "componentType": 5125,
      "count": 156,
      "type": "SCALAR"
    },
    {
      "bufferView": 2,
      "byteOffset": 4894344,
      "componentType": 5126,
      "count": 381,
      "max": [
        1.5659713745117188,
        1.1549999713897705,
        2.083019256591797
      ],
      "min": [
        -1.3540287017822266,
        -0.35500001907348633,
        -1.636500358581543
      ],
      "type": "VEC3"
    },
    {
      "bufferView": 2,
      "byteOffset": 4898916,
      "componentType": 5126,
      "count": 381,
      "max": [
        1.0,
        1.0,
        1.0
      ],
      "min": [
        -1.0,
        -1.0,
        -1.0
      ],
      "type": "VEC3"
    },
    {
      "bufferView": 0,
      "byteOffset": 3162672,
      "componentType": 5125,
      "count": 1125,
      "type": "SCALAR"
    },
    {
      "bufferView": 2,
      "byteOffset": 4903488,
      "componentType": 5126,
      "count": 308,
      "max": [
        1.5659713745117188,
        -0.23500001430511475,
        2.3034446239471436
      ],
      "min": [
        -0.5168185234069824,
        -1.2649999856948853,
        1.083493947982788
      ],
      "type": "VEC3"
    },
    {
      "bufferView": 2,
      "byteOffset": 4907184,
      "componentType": 5126,
      "count": 308,
      "max": [
        0.0,
        0.0,
        1.0
      ],
      "min": [
        -1.0,
        -1.0,
        -0.0003000000142492354
      ],
      "type": "VEC3"
    },
    {
      "bufferView": 0,
      "byteOffset": 3167172,
      "componentType": 5125,
      "count": 696,
      "type": "SCALAR"
    },
    {
      "bufferView": 2,
      "byteOffset": 4910880,
      "componentType": 5126,
      "count": 65532,
      "max": [
        1.665970802307129,
        1.321598768234253,
        2.436499834060669
      ],
      "min": [
        -1.665970802307129,
        -1.3350000381469727,
        -2.436500310897827
      ],
      "type": "VEC3"
    },
    {
      "bufferView": 2,
      "byteOffset": 5697264,
      "componentType": 5126,
      "count": 65532,
      "max": [
        1.0,
        1.0,
        1.0
      ],
      "min": [
        -1.0,
        -1.0,
        -1.0
      ],
      "type": "VEC3"
    },
    {
      "bufferView": 3,
      "byteOffset": 8848,
      "componentType": 5126,
      "count": 65532,
      "max": [
        1.0,
        1.0,
        1.0,
        1.0
      ],
      "min": [
        -1.0,
        -1.0,
        -1.0,
        -1.0
      ],
      "type": "VEC4"
    },
    {
      "bufferView": 1,
      "byteOffset": 17696,
      "componentType": 5126,
      "count": 65532,
      "max": [
        1.0,
        1.0
      ],
      "min": [
        0.0,
        0.0
      ],
      "type": "VEC2"
    },
    {
      "bufferView": 1,
      "byteOffset": 541952,
      "componentType": 5126,
      "count": 65532,
      "max": [
        1.0,
        1.0
      ],
      "min": [
        0.0,
        0.0
      ],
      "type": "VEC2"
    },
    {
      "bufferView": 1,
      "byteOffset": 1066208,
      "componentType": 5126,
      "count": 65532,
      "max": [
        1.0,
        1.0
      ],
      "min": [
        0.0,
        0.0
      ],
      "type": "VEC2"
    },
    {
      "bufferView": 0,
      "byteOffset": 3169956,
      "componentType": 5125,
      "count": 161691,
      "type": "SCALAR"
    },
    {
      "bufferView": 2,
      "byteOffset": 6483648,
      "componentType": 5126,
      "count": 6366,
      "max": [
        1.4923765659332275,
        -0.7860795855522156,
        -2.4135003089904785
      ],
      "min": [
        1.0253126621246338,
        -1.2858796119689941,
        -2.4138004779815674
      ],
      "type": "VEC3"
    },
    {
      "bufferView": 2,
      "byteOffset": 6560040,
      "componentType": 5126,
      "count": 6366,
      "max": [
        0.8588048815727234,
        0.9970544576644897,
        1.0
      ],
      "min": [
        -0.993366003036499,
        -0.9735416173934937,
        -1.0
      ],
      "type": "VEC3"
    },
    {
      "bufferView": 3,
      "byteOffset": 1057360,
      "componentType": 5126,
      "count": 6366,
      "max": [
        1.0,
        1.0,
        0.9613310098648071,
        1.0
      ],
      "min": [
        -1.0,
        -1.0,
        -0.8242318630218506,
        -1.0
      ],
      "type": "VEC4"
    },
    {
      "bufferView": 1,
      "byteOffset": 1590464,
      "componentType": 5126,
      "count": 6366,
      "max": [
        0.9965812563896179,
        0.9992674589157104
      ],
      "min": [
        0.0,
        0.6647130846977234
      ],
      "type": "VEC2"
    },
    {
      "bufferView": 1,
      "byteOffset": 1641392,
      "componentType": 5126,
      "count": 6366,
      "max": [
        0.9965812563896179,
        0.9992674589157104
      ],
      "min": [
        0.0,
        0.6647130846977234
      ],
      "type": "VEC2"
    },
    {
      "bufferView": 1,
      "byteOffset": 1692320,
      "componentType": 5126,
      "count": 6366,
      "max": [
        0.9965812563896179,
        0.9992674589157104
      ],
      "min": [
        0.0,
        0.6647130846977234
      ],
      "type": "VEC2"
    },
    {
      "bufferView": 0,
      "byteOffset": 3816720,
      "componentType": 5125,
      "count": 14043,
      "type": "SCALAR"
    },
    {
      "bufferView": 2,
      "byteOffset": 6636432,
      "componentType": 5126,
      "count": 65532,
      "max": [
        1.5640336275100708,
        0.39199987053871155,
        1.8121415376663208
      ],
      "min": [
        -1.4340280294418335,
        -1.2858800888061523,
        -2.4164998531341553
      ],
      "type": "VEC3"
    },
    {
      "bufferView": 2,
      "byteOffset": 7422816,
      "componentType": 5126,
      "count": 65532,
      "max": [
        1.0,
        1.0,
        1.0
      ],
      "min": [
        -1.0,
        -1.0,
        -1.0
      ],
      "type": "VEC3"
    },
    {
      "bufferView": 3,
      "byteOffset": 1159216,
      "componentType": 5126,
      "count": 65532,
      "max": [
        1.0,
        1.0,
        1.0,
        1.0
      ],
      "min": [
        -1.0,
        -1.0,
        -1.0,
        -1.0
      ],
      "type": "VEC4"
    },
    {
      "bufferView": 1,
      "byteOffset": 1743248,
      "componentType": 5126,
      "count": 65532,
      "max": [
        0.9999999403953552,
        0.9999999403953552
      ],
      "min": [
        0.0,
        0.0
      ],
      "type": "VEC2"
    },
    {
      "bufferView": 1,
      "byteOffset": 2267504,
      "componentType": 5126,
      "count": 65532,
      "max": [
        0.9999999403953552,
        0.9999999403953552
      ],
      "min": [
        0.0,
        0.0
      ],
      "type": "VEC2"
    },
    {
      "bufferView": 1,
      "byteOffset": 2791760,
      "componentType": 5126,
      "count": 65532,
      "max": [
        0.9999999403953552,
        0.9999999403953552
      ],
      "min": [
        0.0,
        0.0
      ],
      "type": "VEC2"
    },
    {
      "bufferView": 0,
      "byteOffset": 3872892,
      "componentType": 5125,
      "count": 159873,
      "type": "SCALAR"
    },
    {
      "bufferView": 2,
      "byteOffset": 8209200,
      "componentType": 5126,
      "count": 35614,
      "max": [
        1.5251420736312866,
        -0.7867134213447571,
        -2.4135091304779053
      ],
      "min": [
        1.0312385559082031,
        -1.2848577499389648,
        -2.4138004779815674
      ],
      "type": "VEC3"
    },
    {
      "bufferView": 2,
      "byteOffset": 8636568,
      "componentType": 5126,
      "count": 35614,
      "max": [
        1.0,
        1.0,
        0.9428611397743225
      ],
      "min": [
        -1.0,
        -1.0,
        -1.0
      ],
      "type": "VEC3"
    },
    {
      "bufferView": 3,
      "byteOffset": 2207728,
      "componentType": 5126,
      "count": 35614,
      "max": [
        1.0,
        1.0,
        1.0,
        1.0
      ],
      "min": [
        -1.0,
        -1.0,
        -1.0,
        -1.0
      ],
      "type": "VEC4"
    },
    {
      "bufferView": 1,
      "byteOffset": 3316016,
      "componentType": 5126,
      "count": 35614,
      "max": [
        0.9999999403953552,
        0.9989750981330872
      ],
      "min": [
        0.0,
        0.0002562403678894043
      ],
      "type": "VEC2"
    },
    {
      "bufferView": 1,
      "byteOffset": 3600928,
      "componentType": 5126,
      "count": 35614,
      "max": [
        0.9999999403953552,
        0.9989750981330872
      ],
      "min": [
        0.0,
        0.0002562403678894043
      ],
      "type": "VEC2"
    },
    {
      "bufferView": 1,
      "byteOffset": 3885840,
      "componentType": 5126,
      "count": 35614,
      "max": [
        0.9999999403953552,
        0.9989750981330872
      ],
      "min": [
        0.0,
        0.0002562403678894043
      ],
      "type": "VEC2"
    },
    {
      "bufferView": 0,
      "byteOffset": 4512384,
      "componentType": 5125,
      "count": 94884,
      "type": "SCALAR"
    },
    {
      "bufferView": 2,
      "byteOffset": 9063936,
      "componentType": 5126,
      "count": 690,
      "max": [
        1.665970802307129,
        0.8650000095367432,
        2.433499813079834
      ],
      "min": [
        -0.3340287208557129,
        -0.2850000858306885,
        -0.9865002632141113
      ],
      "type": "VEC3"
    },
    {
      "bufferView": 2,
      "byteOffset": 9072216,
      "componentType": 5126,
      "count": 690,
      "max": [
        1.0,
        1.0,
        1.0
      ],
      "min": [
        -1.0,
        -1.0,
        -9.999999747378752e-05
      ],
      "type": "VEC3"
    },
    {
      "bufferView": 0,
      "byteOffset": 4891920,
      "componentType": 5125,
      "count": 1464,
      "type": "SCALAR"
    },
    {
      "bufferView": 2,
      "byteOffset": 9080496,
      "componentType": 5126,
      "count": 62218,
      "max": [
        1.6479711532592773,
        0.9480364322662354,
        2.1987335681915283
      ],
      "min": [
        -1.4340286254882813,
        -1.3250000476837158,
        -2.4155001640319824
      ],
      "type": "VEC3"
    },
    {
      "bufferView": 2,
      "byteOffset": 9827112,
      "componentType": 5126,
      "count": 62218,
      "max": [
        1.0,
        1.0,
        1.0
      ],
      "min": [
        -1.0,
        -1.0,
        -1.0
      ],
      "type": "VEC3"
    },
    {
      "bufferView": 0,
      "byteOffset": 4897776,
      "componentType": 5125,
      "count": 239286,
      "type": "SCALAR"
    }
  ],
  "asset": {
    "extras": {
      "author": "Biblioteca UVG (https://sketchfab.com/Biblioteca.UVG)",
      "license": "CC-BY-4.0 (http://creativecommons.org/licenses/by/4.0/)",
      "source": "https://sketchfab.com/3d-models/cabina-de-podcast-campus-sur-64109fa3d4b84eb09ab909207519061e",
      "title": "Cabina de podcast campus sur"
    },
    "generator": "Sketchfab-16.99.0",
    "version": "2.0"
  },
  "bufferViews": [
    {
      "buffer": 0,
      "byteLength": 5854920,
      "name": "floatBufferViews",
      "target": 34963
    },
    {
      "buffer": 0,
      "byteLength": 4170752,
      "byteOffset": 5854920,
      "byteStride": 8,
      "name": "floatBufferViews",
      "target": 34962
    },
    {
      "buffer": 0,
      "byteLength": 10573728,
      "byteOffset": 10025672,
      "byteStride": 12,
      "name": "floatBufferViews",
      "target": 34962
    },
    {
      "buffer": 0,
      "byteLength": 2777552,
      "byteOffset": 20599400,
      "byteStride": 16,
      "name": "floatBufferViews",
      "target": 34962
    }
  ],
  "buffers": [
    {
      "byteLength": 23376952,
      "uri": "scene.bin"
    }
  ],
  "extensionsUsed": [
    "KHR_materials_transmission",
    "KHR_materials_clearcoat"
  ],
  "images": [
    {
      "uri": "textures/Material_21_baseColor.png"
    },
    {
      "uri": "textures/Material_21_metallicRoughness.png"
    },
    {
      "uri": "textures/Material_21_normal.png"
    },
    {
      "uri": "textures/Material_41_metallicRoughness.png"
    },
    {
      "uri": "textures/Material_41_normal.png"
    },
    {
      "uri": "textures/Material_42_metallicRoughness.png"
    },
    {
      "uri": "textures/Material_42_normal.png"
    }
  ],
  "materials": [
    {
      "name": "Material_0",
      "pbrMetallicRoughness": {
        "baseColorFactor": [
          0.208637,
          0.208637,
          0.238398,
          1.0
        ],
        "metallicFactor": 0.0,
        "roughnessFactor": 0.5
      }
    },
    {
      "name": "Material_1",
      "pbrMetallicRoughness": {
        "metallicFactor": 0.0,
        "roughnessFactor": 0.5
      }
    },
    {
      "name": "Material_2",
      "pbrMetallicRoughness": {
        "baseColorFactor": [
          0.938686,
          0.938686,
          1.0,
          1.0
        ],
        "metallicFactor": 0.0,
        "roughnessFactor": 0.5
      }
    },
    {
      "name": "Material_3",
      "pbrMetallicRoughness": {
        "baseColorFactor": [
          0.205079,
          0.205079,
          0.205079,
          1.0
        ],
        "metallicFactor": 0.0,
        "roughnessFactor": 0.5
      }
    },
    {
      "name": "Material_4",
      "pbrMetallicRoughness": {
        "baseColorFactor": [
          0.000910581,
          0.000910581,
          0.000910581,
          1.0
        ],
        "metallicFactor": 0.0,
        "roughnessFactor": 0.5
      }
    },
    {
      "name": "Material_5",
      "pbrMetallicRoughness": {
        "baseColorFactor": [
          0.539479,
          0.527115,
          0.527115,
          1.0
        ],
        "metallicFactor": 0.0,
        "roughnessFactor": 0.5
      }
    },
    {
      "name": "Material_6",
      "pbrMetallicRoughness": {
        "baseColorFactor": [
          0.0,
          0.14996,
          0.234551,
          1.0
        ],
        "metallicFactor": 0.0,
        "roughnessFactor": 0.5
      }
    },
    {
      "name": "Material_7",
      "pbrMetallicRoughness": {
        "baseColorFactor": [
          0.991102,
          0.991102,
          1.0,
          1.0
        ],
        "metallicFactor": 0.0,
        "roughnessFactor": 0.5
      }
    },
    {
      "name": "Material_8",
      "pbrMetallicRoughness": {
        "baseColorFactor": [
          0.000303527,
          0.000303527,
          0.000303527,
          1.0
        ],
        "metallicFactor": 0.0,
        "roughnessFactor": 0.5
      }
    },
    {
      "name": "Material_9",
      "pbrMetallicRoughness": {
        "baseColorFactor": [
          0.730461,
          0.0382044,
          0.0382044,
          1.0
        ],
        "metallicFactor": 0.0,
        "roughnessFactor": 0.5
      }
    },
    {
      "name": "Material_10",
      "pbrMetallicRoughness": {
        "baseColorFactor": [
          0.0295568,
          0.0295568,
          0.630757,
          1.0
        ],
        "metallicFactor": 0.0,
        "roughnessFactor": 0.5
      }
    },
    {
      "name": "Material_11",
      "pbrMetallicRoughness": {
        "baseColorFactor": [
          0.0,
          0.617207,
          1.0,
          1.0
        ],
        "metallicFactor": 0.0,
        "roughnessFactor": 0.5
      }
    },
    {
      "name": "Material_12",
      "pbrMetallicRoughness": {
        "baseColorFactor": [
          0.181164,
          0.171441,
          0.171441,
          1.0
        ],
        "metallicFactor": 0.0,
        "roughnessFactor": 0.5
      }
    },
    {
      "name": "Material_13",
      "pbrMetallicRoughness": {
        "baseColorFactor": [
          0.391573,
          0.391573,
          0.396755,
          1.0
        ],
        "metallicFactor": 0.0,
        "roughnessFactor": 0.5
      }
    },
    {
      "name": "Material_14",
      "pbrMetallicRoughness": {
        "baseColorFactor": [
          0.158961,
          0.158961,
          0.162029,
          1.0
        ],
        "metallicFactor": 0.0,
        "roughnessFactor": 0.5
      }
    },
    {
      "name": "Material_15",
      "pbrMetallicRoughness": {
        "baseColorFactor": [
          0.000607054,
          0.000607054,
          0.000607054,
          1.0
        ],
        "metallicFactor": 0.0,
        "roughnessFactor": 0.5
      }
    },
    {
      "name": "Material_16",
      "pbrMetallicRoughness": {
        "baseColorFactor": [
          0.00334654,
          0.00334654,
          0.00334654,
          1.0
        ],
        "metallicFactor": 0.0,
        "roughnessFactor": 0.5
      }
    },
    {
      "name": "Material_17",
      "pbrMetallicRoughness": {
        "baseColorFactor": [
          0.00151763,
          0.00151763,
          0.00151763,
          1.0
        ],
        "metallicFactor": 0.0,
        "roughnessFactor": 0.5
      }
    },
    {
      "name": "Material_18",
      "pbrMetallicRoughness": {
        "baseColorFactor": [
          0.0202886,
          0.0612461,
          0.0761854,
          1.0
        ],
        "metallicFactor": 0.0,
        "roughnessFactor": 0.5
      }
    },
    {
      "name": "Material_19",
      "pbrMetallicRoughness": {
        "baseColorFactor": [
          0.0497066,
          0.0497066,
          0.0544803,
          1.0
        ],
        "metallicFactor": 0.0,
        "roughnessFactor": 0.5
      }
    },
    {
      "name": "Material_20",
      "pbrMetallicRoughness": {
        "baseColorFactor": [
          0.0382044,
          0.0382044,
          0.0451862,
          1.0
        ],
        "metallicFactor": 0.0,
        "roughnessFactor": 0.5
      }
    },
    {
      "name": "Material_21",
      "normalTexture": {
        "index": 2
      },
      "pbrMetallicRoughness": {
        "baseColorTexture": {
          "index": 0
        },
        "metallicRoughnessTexture": {
          "index": 1
        }
      }
    },
    {
      "name": "Material_22",
      "pbrMetallicRoughness": {
        "baseColorFactor": [
          0.00913406,
          0.00913406,
          0.0116122,
          1.0
        ],
        "metallicFactor": 0.0,
        "roughnessFactor": 0.5
      }
    },
    {
      "name": "Material_23",
      "pbrMetallicRoughness": {
        "baseColorFactor": [
          0.590619,
          0.0512695,
          0.00151763,
          1.0
        ],
        "metallicFactor": 0.0,
        "roughnessFactor": 0.5
      }
    },
    {
      "name": "Material_24",
      "pbrMetallicRoughness": {
        "baseColorFactor": [
          0.0159963,
          0.242281,
          0.00439144,
          1.0
        ],
        "metallicFactor": 0.0,
        "roughnessFactor": 0.5
      }
    },
    {
      "name": "Material_25",
      "pbrMetallicRoughness": {
        "baseColorFactor": [
          0.00402472,
          0.00402472,
          0.177888,
          1.0
        ],
        "metallicFactor": 0.0,
        "roughnessFactor": 0.5
      }
    },
    {
      "name": "Material_26",
      "pbrMetallicRoughness": {
        "baseColorFactor": [
          0.973445,
          0.973445,
          0.973445,
          1.0
        ],
        "metallicFactor": 0.0,
        "roughnessFactor": 0.5
      }
    },
    {
      "alphaMode": "BLEND",
      "extensions": {
        "KHR_materials_transmission": {
          "transmissionFactor": 0.890196
        }
      },
      "name": "Material_27",
      "pbrMetallicRoughness": {
        "baseColorFactor": [
          0.144128,
          0.144128,
          0.152926,
          0.25
        ],
        "metallicFactor": 0.0,
        "roughnessFactor": 0.5
      }
    },
    {
      "name": "Material_28",
      "pbrMetallicRoughness": {
        "baseColorFactor": [
          0.0423114,
          0.0423114,
          0.0423114,
          1.0
        ],
        "metallicFactor": 0.0,
        "roughnessFactor": 0.5
      }
    },
    {
      "name": "Material_29",
      "pbrMetallicRoughness": {
        "baseColorFactor": [
          0.144128,
          0.144128,
          0.152926,
          1.0
        ],
        "metallicFactor": 0.0,
        "roughnessFactor": 0.5
      }
    },
    {
      "name": "Material_30",
      "pbrMetallicRoughness": {
        "baseColorFactor": [
          0.242281,
          0.242281,
          0.270498,
          1.0
        ],
        "metallicFactor": 0.0,
        "roughnessFactor": 0.5
      }
    },
    {
      "name": "Material_31",
      "pbrMetallicRoughness": {
        "baseColorFactor": [
          0.930111,
          0.930111,
          0.973445,
          1.0
        ],
        "metallicFactor": 0.0,
        "roughnessFactor": 0.5
      }
    },
    {
      "name": "Material_32",
      "pbrMetallicRoughness": {
        "baseColorFactor": [
          0.116971,
          0.246201,
          0.283149,
          1.0
        ],
        "metallicFactor": 0.0,
        "roughnessFactor": 0.5
      }
    },
    {
      "alphaMode": "BLEND",
      "extensions": {
        "KHR_materials_transmission": {
          "transmissionFactor": 0.831373
        }
      },
      "name": "Material_33",
      "pbrMetallicRoughness": {
        "baseColorFactor": [
          0.964686,
          0.964686,
          0.973445,
          0.25
        ],
        "metallicFactor": 0.0,
        "roughnessFactor": 0.5
      }
    },
    {
      "name": "Material_34",
      "pbrMetallicRoughness": {
        "baseColorFactor": [
          0.48515,
          0.00651209,
          0.00651209,
          1.0
        ],
        "metallicFactor": 0.0,
        "roughnessFactor": 0.5
      }
    },
    {
      "name": "Material_35",
      "pbrMetallicRoughness": {
        "baseColorFactor": [
          0.0343398,
          0.028426,
          0.028426,
          1.0
        ],
        "metallicFactor": 0.0,
        "roughnessFactor": 0.5
      }
    },
    {
      "name": "Material_37",
      "pbrMetallicRoughness": {
        "baseColorFactor": [
          0.0409152,
          0.0409152,
          0.0423114,
          1.0
        ],
        "metallicFactor": 0.0,
        "roughnessFactor": 0.5
      }
    },
    {
      "name": "Material_38",
      "pbrMetallicRoughness": {
        "baseColorFactor": [
          0.00303527,
          0.00303527,
          0.00303527,
          1.0
        ],
        "metallicFactor": 0.0,
        "roughnessFactor": 0.5
      }
    },
    {
      "name": "Material_39",
      "pbrMetallicRoughness": {
        "baseColorFactor": [
          0.496933,
          0.000303527,
          0.00121411,
          1.0
        ],
        "metallicFactor": 0.0,
        "roughnessFactor": 0.5
      }
    },
    {
      "alphaMode": "BLEND",
      "extensions": {
        "KHR_materials_clearcoat": {
          "clearcoatFactor": 1.0,
          "clearcoatRoughnessFactor": 0.0
        },
        "KHR_materials_transmission": {
          "transmissionFactor": 0.5
        }
      },
      "name": "Material_40",
      "pbrMetallicRoughness": {
        "baseColorFactor": [
          1.0,
          0.99999,
          0.99999,
          0.5
        ],
        "metallicFactor": 0.0,
        "roughnessFactor": 0.1
      }
    },
    {
      "extensions": {
        "KHR_materials_clearcoat": {
          "clearcoatFactor": 0.423,
          "clearcoatRoughnessFactor": 0.274
        }
      },
      "name": "Material_41",
      "normalTexture": {
        "index": 4,
        "scale": 0.6,
        "texCoord": 1
      },
      "pbrMetallicRoughness": {
        "baseColorFactor": [
          0.610496,
          0.610489,
          0.610489,
          1.0
        ],
        "metallicRoughnessTexture": {
          "index": 3
        },
        "roughnessFactor": 0.742
      }
    },
    {
      "extensions": {
        "KHR_materials_clearcoat": {
          "clearcoatFactor": 0.423,
          "clearcoatRoughnessFactor": 0.274
        }
      },
      "name": "Material_42",
      "normalTexture": {
        "index": 6,
        "scale": 0.6,
        "texCoord": 1
      },
      "pbrMetallicRoughness": {
        "baseColorFactor": [
          0.610496,
          0.610489,
          0.610489,
          1.0
        ],
        "metallicRoughnessTexture": {
          "index": 5
        },
        "roughnessFactor": 0.742
      }
    },
    {
      "alphaMode": "BLEND",
      "extensions": {
        "KHR_materials_transmission": {
          "transmissionFactor": 0.960784
        }
      },
      "name": "Material_43",
      "pbrMetallicRoughness": {
        "baseColorFactor": [
          0.930111,
          0.930111,
          0.973445,
          0.25
        ],
        "metallicFactor": 0.0,
        "roughnessFactor": 0.5
      }
    },
    {
      "name": "Material_44",
      "pbrMetallicRoughness": {
        "baseColorFactor": [
          0.0,
          0.0,
          0.0,
          1.0
        ],
        "metallicFactor": 0.0,
        "roughnessFactor": 0.5
      }
    }
  ],
  "meshes": [
    {
      "name": "Object_0",
      "primitives": [
        {
          "attributes": {
            "NORMAL": 1,
            "POSITION": 0
          },
          "indices": 2,
          "material": 0,
          "mode": 4
        }
      ]
    },
    {
      "name": "Object_1",
      "primitives": [
        {
          "attributes": {
            "NORMAL": 4,
            "POSITION": 3
          },
          "indices": 5,
          "material": 1,
          "mode": 4
        }
      ]
    },
    {
      "name": "Object_2",
      "primitives": [
        {
          "attributes": {
            "NORMAL": 7,
            "POSITION": 6
          },
          "indices": 8,
          "material": 2,
          "mode": 4
        }
      ]
    },
    {
      "name": "Object_3",
      "primitives": [
        {
          "attributes": {
            "NORMAL": 10,
            "POSITION": 9
          },
          "indices": 11,
          "material": 3,
          "mode": 4
        }
      ]
    },
    {
      "name": "Object_4",
      "primitives": [
        {
          "attributes": {
            "NORMAL": 13,
            "POSITION": 12
          },
          "indices": 14,
          "material": 4,
          "mode": 4
        }
      ]
    },
    {
      "name": "Object_5",
      "primitives": [
        {
          "attributes": {
            "NORMAL": 16,
            "POSITION": 15
          },
          "indices": 17,
          "material": 5,
          "mode": 4
        }
      ]
    },
    {
      "name": "Object_6",
      "primitives": [
        {
          "attributes": {
            "NORMAL": 19,
            "POSITION": 18
          },
          "indices": 20,
          "material": 6,
          "mode": 4
        }
      ]
    },
    {
      "name": "Object_7",
      "primitives": [
        {
          "attributes": {
            "NORMAL": 22,
            "POSITION": 21
          },
          "indices": 23,
          "material": 7,
          "mode": 4
        }
      ]
    },
    {
      "name": "Object_8",
      "primitives": [
        {
          "attributes": {
            "NORMAL": 25,
            "POSITION": 24
          },
          "indices": 26,
          "material": 8,
          "mode": 4
        }
      ]
    },
    {
      "name": "Object_9",
      "primitives": [
        {
          "attributes": {
            "NORMAL": 28,
            "POSITION": 27
          },
          "indices": 29,
          "material": 9,
          "mode": 4
        }
      ]
    },
    {
      "name": "Object_10",
      "primitives": [
        {
          "attributes": {
            "NORMAL": 31,
            "POSITION": 30
          },
          "indices": 32,
          "material": 10,
          "mode": 4
        }
      ]
    },
    {
      "name": "Object_11",
      "primitives": [
        {
          "attributes": {
            "NORMAL": 34,
            "POSITION": 33
          },
          "indices": 35,
          "material": 11,
          "mode": 4
        }
      ]
    },
    {
      "name": "Object_12",
      "primitives": [
        {
          "attributes": {
            "NORMAL": 37,
            "POSITION": 36
          },
          "indices": 38,
          "material": 12,
          "mode": 4
        }
      ]
    },
    {
      "name": "Object_13",
      "primitives": [
        {
          "attributes": {
            "NORMAL": 40,
            "POSITION": 39
          },
          "indices": 41,
          "material": 13,
          "mode": 4
        }
      ]
    },
    {
      "name": "Object_14",
      "primitives": [
        {
          "attributes": {
            "NORMAL": 43,
            "POSITION": 42
          },
          "indices": 44,
          "material": 14,
          "mode": 4
        }
      ]
    },
    {
      "name": "Object_15",
      "primitives": [
        {
          "attributes": {
            "NORMAL": 46,
            "POSITION": 45
          },
          "indices": 47,
          "material": 15,
          "mode": 4
        }
      ]
    },
    {
      "name": "Object_16",
      "primitives": [
        {
          "attributes": {
            "NORMAL": 49,
            "POSITION": 48
          },
          "indices": 50,
          "material": 16,
          "mode": 4
        }
      ]
    },
    {
      "name": "Object_17",
      "primitives": [
        {
          "attributes": {
            "NORMAL": 52,
            "POSITION": 51
          },
          "indices": 53,
          "material": 17,
          "mode": 4
        }
      ]
    },
    {
      "name": "Object_18",
      "primitives": [
        {
          "attributes": {
            "NORMAL": 55,
            "POSITION": 54
          },
          "indices": 56,
          "material": 18,
          "mode": 4
        }
      ]
    },
    {
      "name": "Object_19",
      "primitives": [
        {
          "attributes": {
            "NORMAL": 58,
            "POSITION": 57
          },
          "indices": 59,
          "material": 19,
          "mode": 4
        }
      ]
    },
    {
      "name": "Object_20",
      "primitives": [
        {
          "attributes": {
            "NORMAL": 61,
            "POSITION": 60
          },
          "indices": 62,
          "material": 20,
          "mode": 4
        }
      ]
    },
    {
      "name": "Object_21",
      "primitives": [
        {
          "attributes": {
            "NORMAL": 64,
            "POSITION": 63,
            "TANGENT": 65,
            "TEXCOORD_0": 66,
            "TEXCOORD_1": 67,
            "TEXCOORD_2": 68,
            "TEXCOORD_3": 69
          },
          "indices": 70,
          "material": 21,
          "mode": 4
        }
      ]
    },
    {
      "name": "Object_22",
      "primitives": [
        {
          "attributes": {
            "NORMAL": 72,
            "POSITION": 71
          },
          "indices": 73,
          "material": 22,
          "mode": 4
        }
      ]
    },
    {
      "name": "Object_23",
      "primitives": [
        {
          "attributes": {
            "NORMAL": 75,
            "POSITION": 74
          },
          "indices": 76,
          "material": 23,
          "mode": 4
        }
      ]
    },
    {
      "name": "Object_24",
      "primitives": [
        {
          "attributes": {
            "NORMAL": 78,
            "POSITION": 77
          },
          "indices": 79,
          "material": 24,
          "mode": 4
        }
      ]
    },
    {
      "name": "Object_25",
      "primitives": [
        {
          "attributes": {
            "NORMAL": 81,
            "POSITION": 80
          },
          "indices": 82,
          "material": 25,
          "mode": 4
        }
      ]
    },
    {
      "name": "Object_26",
      "primitives": [
        {
          "attributes": {
            "NORMAL": 84,
            "POSITION": 83
          },
          "indices": 85,
          "material": 26,
          "mode": 4
        }
      ]
    },
    {
      "name": "Object_27",
      "primitives": [
        {
          "attributes": {
            "NORMAL": 87,
            "POSITION": 86
          },
          "indices": 88,
          "material": 27,
          "mode": 4
        }
      ]
    },
    {
      "name": "Object_28",
      "primitives": [
        {
          "attributes": {
            "NORMAL": 90,
            "POSITION": 89
          },
          "indices": 91,
          "material": 28,
          "mode": 4
        }
      ]
    },
    {
      "name": "Object_29",
      "primitives": [
        {
          "attributes": {
            "NORMAL": 93,
            "POSITION": 92
          },
          "indices": 94,
          "material": 29,
          "mode": 4
        }
      ]
    },
    {
      "name": "Object_30",
      "primitives": [
        {
          "attributes": {
            "NORMAL": 96,
            "POSITION": 95
          },
          "indices": 97,
          "material": 30,
          "mode": 4
        }
      ]
    },
    {
      "name": "Object_31",
      "primitives": [
        {
          "attributes": {
            "NORMAL": 99,
            "POSITION": 98
          },
          "indices": 100,
          "material": 30,
          "mode": 4
        }
      ]
    },
    {
      "name": "Object_32",
      "primitives": [
        {
          "attributes": {
            "NORMAL": 102,
            "POSITION": 101
          },
          "indices": 103,
          "material": 31,
          "mode": 4
        }
      ]
    },
    {
      "name": "Object_33",
      "primitives": [
        {
          "attributes": {
            "NORMAL": 105,
            "POSITION": 104
          },
          "indices": 106,
          "material": 32,
          "mode": 4
        }
      ]
    },
    {
      "name": "Object_34",
      "primitives": [
        {
          "attributes": {
            "NORMAL": 108,
            "POSITION": 107
          },
          "indices": 109,
          "material": 33,
          "mode": 4
        }
      ]
    },
    {
      "name": "Object_35",
      "primitives": [
        {
          "attributes": {
            "NORMAL": 111,
            "POSITION": 110
          },
          "indices": 112,
          "material": 34,
          "mode": 4
        }
      ]
    },
    {
      "name": "Object_36",
      "primitives": [
        {
          "attributes": {
            "NORMAL": 114,
            "POSITION": 113
          },
          "indices": 115,
          "material": 35,
          "mode": 4
        }
      ]
    },
    {
      "name": "Object_37",
      "primitives": [
        {
          "attributes": {
            "NORMAL": 117,
            "POSITION": 116
          },
          "indices": 118,
          "material": 36,
          "mode": 4
        }
      ]
    },
    {
      "name": "Object_38",
      "primitives": [
        {
          "attributes": {
            "NORMAL": 120,
            "POSITION": 119
          },
          "indices": 121,
          "material": 37,
          "mode": 4
        }
      ]
    },
    {
      "name": "Object_39",
      "primitives": [
        {
          "attributes": {
            "NORMAL": 123,
            "POSITION": 122
          },
          "indices": 124,
          "material": 38,
          "mode": 4
        }
      ]
    },
    {
      "name": "Object_40",
      "primitives": [
        {
          "attributes": {
            "NORMAL": 126,
            "POSITION": 125
          },
          "indices": 127,
          "material": 39,
          "mode": 4
        }
      ]
    },
    {
      "name": "Object_41",
      "primitives": [
        {
          "attributes": {
            "NORMAL": 129,
            "POSITION": 128,
            "TANGENT": 130,
            "TEXCOORD_0": 131,
            "TEXCOORD_1": 132,
            "TEXCOORD_2": 133
          },
          "indices": 134,
          "material": 40,
          "mode": 4
        }
      ]
    },
    {
      "name": "Object_42",
      "primitives": [
        {
          "attributes": {
            "NORMAL": 136,
            "POSITION": 135,
            "TANGENT": 137,
            "TEXCOORD_0": 138,
            "TEXCOORD_1": 139,
            "TEXCOORD_2": 140
          },
          "indices": 141,
          "material": 40,
          "mode": 4
        }
      ]
    },
    {
      "name": "Object_43",
      "primitives": [
        {
          "attributes": {
            "NORMAL": 143,
            "POSITION": 142,
            "TANGENT": 144,
            "TEXCOORD_0": 145,
            "TEXCOORD_1": 146,
            "TEXCOORD_2": 147
          },
          "indices": 148,
          "material": 41,
          "mode": 4
        }
      ]
    },
    {
      "name": "Object_44",
      "primitives": [
        {
          "attributes": {
            "NORMAL": 150,
            "POSITION": 149,
            "TANGENT": 151,
            "TEXCOORD_0": 152,
            "TEXCOORD_1": 153,
            "TEXCOORD_2": 154
          },
          "indices": 155,
          "material": 41,
          "mode": 4
        }
      ]
    },
    {
      "name": "Object_45",
      "primitives": [
        {
          "attributes": {
            "NORMAL": 157,
            "POSITION": 156
          },
          "indices": 158,
          "material": 42,
          "mode": 4
        }
      ]
    },
    {
      "name": "Object_46",
      "primitives": [
        {
          "attributes": {
            "NORMAL": 160,
            "POSITION": 159
          },
          "indices": 161,
          "material": 43,
          "mode": 4
        }
      ]
    }
  ],
  "nodes": [
    {
      "children": [
        1
      ],
      "matrix": [
        1.0,
        0.0,
        0.0,
        0.0,
        0.0,
        2.220446049250313e-16,
        -1.0,
        0.0,
        0.0,
        1.0,
        2.220446049250313e-16,
        0.0,
        0.0,
        0.0,
        0.0,
        1.0
      ],
      "name": "Sketchfab_model"
    },
    {
      "children": [
        2
      ],
      "name": "root"
    },
    {
      "children": [
        3,
        5,
        7,
        9,
        11,
        13,
        15,
        17,
        19,
        21,
        23,
        25,
        27,
        29,
        31,
        33,
        35,
        37,
        39,
        41,
        43,
        45,
        47,
        49,
        51,
        53,
        55,
        57,
        59,
        61,
        63,
        66,
        68,
        70,
        72,
        74,
        76,
        78,
        80,
        82,
        84,
        87,
        90,
        92
      ],
      "matrix": [
        1.0,
        0.0,
        0.0,
        0.0,
        0.0,
        2.220446049250313e-16,
        1.0,
        0.0,
        0.0,
        -1.0,
        2.220446049250313e-16,
        0.0,
        0.0,
        0.0,
        0.0,
        1.0
      ],
      "name": "GLTF_SceneRootNode"
    },
    {
      "children": [
        4
      ],
      "matrix": [
        1.0,
        0.0,
        0.0,
        0.0,
        0.0,
        1.0,
        0.0,
        0.0,
        0.0,
        0.0,
        1.0,
        0.0,
        0.0,
        1.4254543781280518,
        0.29390811920166016,
        1.0
      ],
      "name": "Mesh_0_0"
    },
    {
      "mesh": 0,
      "name": "Object_4"
    },
    {
      "children": [
        6
      ],
      "matrix": [
        1.0,
        0.0,
        0.0,
        0.0,
        0.0,
        1.0,
        0.0,
        0.0,
        0.0,
        0.0,
        1.0,
        0.0,
        0.0,
        1.4254543781280518,
        0.29390811920166016,
        1.0
      ],
      "name": "Mesh_1_1"
    },
    {
      "mesh": 1,
      "name": "Object_6"
    },
    {
      "children": [
        8
      ],
      "matrix": [
        1.0,
        0.0,
        0.0,
        0.0,
        0.0,
        1.0,
        0.0,
        0.0,
        0.0,
        0.0,
        1.0,
        0.0,
        0.0,
        1.4254543781280518,
        0.29390811920166016,
        1.0
      ],
      "name": "Mesh_2_2"
    },
    {
      "mesh": 2,
      "name": "Object_8"
    },
    {
      "children": [
        10
      ],
      "matrix": [
        1.0,
        0.0,
        0.0,
        0.0,
        0.0,
        1.0,
        0.0,
        0.0,
        0.0,
        0.0,
        1.0,
        0.0,
        0.0,
        1.4254543781280518,
        0.29390811920166016,
        1.0
      ],
      "name": "Mesh_3_3"
    },
    {
      "mesh": 3,
      "name": "Object_10"
    },
    {
      "children": [
        12
      ],
      "matrix": [
        1.0,
        0.0,
        0.0,
        0.0,
        0.0,
        1.0,
        0.0,
        0.0,
        0.0,
        0.0,
        1.0,
        0.0,
        0.0,
        1.4254543781280518,
        0.29390811920166016,
        1.0
      ],
      "name": "Mesh_4_4"
    },
    {
      "mesh": 4,
      "name": "Object_12"
    },
    {
      "children": [
        14
      ],
      "matrix": [
        1.0,
        0.0,
        0.0,
        0.0,
        0.0,
        1.0,
        0.0,
        0.0,
        0.0,
        0.0,
        1.0,
        0.0,
        0.0,
        1.4254543781280518,
        0.29390811920166016,
        1.0
      ],
      "name": "Mesh_5_5"
    },
    {
      "mesh": 5,
      "name": "Object_14"
    },
    {
      "children": [
        16
      ],
      "matrix": [
        1.0,
        0.0,
        0.0,
        0.0,
        0.0,
        1.0,
        0.0,
        0.0,
        0.0,
        0.0,
        1.0,
        0.0,
        0.0,
        1.4254543781280518,
        0.29390811920166016,
        1.0
      ],
      "name": "Mesh_6_6"
    },
    {
      "mesh": 6,
      "name": "Object_16"
    },
    {
      "children": [
        18
      ],
      "matrix": [
        1.0,
        0.0,
        0.0,
        0.0,
        0.0,
        1.0,
        0.0,
        0.0,
        0.0,
        0.0,
        1.0,
        0.0,
        0.0,
        1.4254543781280518,
        0.29390811920166016,
        1.0
      ],
      "name": "Mesh_7_7"
    },
    {
      "mesh": 7,
      "name": "Object_18"
    },
    {
      "children": [
        20
      ],
      "matrix": [
        1.0,
        0.0,
        0.0,
        0.0,
        0.0,
        1.0,
        0.0,
        0.0,
        0.0,
        0.0,
        1.0,
        0.0,
        0.0,
        1.4254543781280518,
        0.29390811920166016,
        1.0
      ],
      "name": "Mesh_8_8"
    },
    {
      "mesh": 8,
      "name": "Object_20"
    },
    {
      "children": [
        22
      ],
      "matrix": [
        1.0,
        0.0,
        0.0,
        0.0,
        0.0,
        1.0,
        0.0,
        0.0,
        0.0,
        0.0,
        1.0,
        0.0,
        0.0,
        1.4254543781280518,
        0.29390811920166016,
        1.0
      ],
      "name": "Mesh_9_9"
    },
    {
      "mesh": 9,
      "name": "Object_22"
    },
    {
      "children": [
        24
      ],
      "matrix": [
        1.0,
        0.0,
        0.0,
        0.0,
        0.0,
        1.0,
        0.0,
        0.0,
        0.0,
        0.0,
        1.0,
        0.0,
        0.0,
        1.4254543781280518,
        0.29390811920166016,
        1.0
      ],
      "name": "Mesh_10_10"
    },
    {
      "mesh": 10,
      "name": "Object_24"
    },
    {
      "children": [
        26
      ],
      "matrix": [
        1.0,
        0.0,
        0.0,
        0.0,
        0.0,
        1.0,
        0.0,
        0.0,
        0.0,
        0.0,
        1.0,
        0.0,
        0.0,
        1.4254543781280518,
        0.29390811920166016,
        1.0
      ],
      "name": "Mesh_11_11"
    },
    {
      "mesh": 11,
      "name": "Object_26"
    },
    {
      "children": [
        28
      ],
      "matrix": [
        1.0,
        0.0,
        0.0,
        0.0,
        0.0,
        1.0,
        0.0,
        0.0,
        0.0,
        0.0,
        1.0,
        0.0,
        0.0,
        1.4254543781280518,
        0.29390811920166016,
        1.0
      ],
      "name": "Mesh_12_12"
    },
    {
      "mesh": 12,
      "name": "Object_28"
    },
    {
      "children": [
        30
      ],
      "matrix": [
        1.0,
        0.0,
        0.0,
        0.0,
        0.0,
        1.0,
        0.0,
        0.0,
        0.0,
        0.0,
        1.0,
        0.0,
        0.0,
        1.4254543781280518,
        0.29390811920166016,
        1.0
      ],
      "name": "Mesh_13_13"
    },
    {
      "mesh": 13,
      "name": "Object_30"
    },
    {
      "children": [
        32
      ],
      "matrix": [
        1.0,
        0.0,
        0.0,
        0.0,
        0.0,
        1.0,
        0.0,
        0.0,
        0.0,
        0.0,
        1.0,
        0.0,
        0.0,
        1.4254543781280518,
        0.29390811920166016,
        1.0
      ],
      "name": "Mesh_14_14"
    },
    {
      "mesh": 14,
      "name": "Object_32"
    },
    {
      "children": [
        34
      ],
      "matrix": [
        1.0,
        0.0,
        0.0,
        0.0,
        0.0,
        1.0,
        0.0,
        0.0,
        0.0,
        0.0,
        1.0,
        0.0,
        0.0,
        1.4254543781280518,
        0.29390811920166016,
        1.0
      ],
      "name": "Mesh_15_15"
    },
    {
      "mesh": 15,
      "name": "Object_34"
    },
    {
      "children": [
        36
      ],
      "matrix": [
        1.0,
        0.0,
        0.0,
        0.0,
        0.0,
        1.0,
        0.0,
        0.0,
        0.0,
        0.0,
        1.0,
        0.0,
        0.0,
        1.4254543781280518,
        0.29390811920166016,
        1.0
      ],
      "name": "Mesh_16_16"
    },
    {
      "mesh": 16,
      "name": "Object_36"
    },
    {
      "children": [
        38
      ],
      "matrix": [
        1.0,
        0.0,
        0.0,
        0.0,
        0.0,
        1.0,
        0.0,
        0.0,
        0.0,
        0.0,
        1.0,
        0.0,
        0.0,
        1.4254543781280518,
        0.29390811920166016,
        1.0
      ],
      "name": "Mesh_17_17"
    },
    {
      "mesh": 17,
      "name": "Object_38"
    },
    {
      "children": [
        40
      ],
      "matrix": [
        1.0,
        0.0,
        0.0,
        0.0,
        0.0,
        1.0,
        0.0,
        0.0,
        0.0,
        0.0,
        1.0,
        0.0,
        0.0,
        1.4254543781280518,
        0.29390811920166016,
        1.0
      ],
      "name": "Mesh_18_18"
    },
    {
      "mesh": 18,
      "name": "Object_40"
    },
    {
      "children": [
        42
      ],
      "matrix": [
        1.0,
        0.0,
        0.0,
        0.0,
        0.0,
        1.0,
        0.0,
        0.0,
        0.0,
        0.0,
        1.0,
        0.0,
        0.0,
        1.4254543781280518,
        0.29390811920166016,
        1.0
      ],
      "name": "Mesh_19_19"
    },
    {
      "mesh": 19,
      "name": "Object_42"
    },
    {
      "children": [
        44
      ],
      "matrix": [
        1.0,
        0.0,
        0.0,
        0.0,
        0.0,
        1.0,
        0.0,
        0.0,
        0.0,
        0.0,
        1.0,
        0.0,
        0.0,
        1.4254543781280518,
        0.29390811920166016,
        1.0
      ],
      "name": "Mesh_20_20"
    },
    {
      "mesh": 20,
      "name": "Object_44"
    },
    {
      "children": [
        46
      ],
      "matrix": [
        1.0,
        0.0,
        0.0,
        0.0,
        0.0,
        1.0,
        0.0,
        0.0,
        0.0,
        0.0,
        1.0,
        0.0,
        0.0,
        1.4254543781280518,
        0.29390811920166016,
        1.0
      ],
      "name": "Mesh_21_21"
    },
    {
      "mesh": 21,
      "name": "Object_46"
    },
    {
      "children": [
        48
      ],
      "matrix": [
        1.0,
        0.0,
        0.0,
        0.0,
        0.0,
        1.0,
        0.0,
        0.0,
        0.0,
        0.0,
        1.0,
        0.0,
        0.0,
        1.4254543781280518,
        0.29390811920166016,
        1.0
      ],
      "name": "Mesh_22_22"
    },
    {
      "mesh": 22,
      "name": "Object_48"
    },
    {
      "children": [
        50
      ],
      "matrix": [
        1.0,
        0.0,
        0.0,
        0.0,
        0.0,
        1.0,
        0.0,
        0.0,
        0.0,
        0.0,
        1.0,
        0.0,
        0.0,
        1.4254543781280518,
        0.29390811920166016,
        1.0
      ],
      "name": "Mesh_23_23"
    },
    {
      "mesh": 23,
      "name": "Object_50"
    },
    {
      "children": [
        52
      ],
      "matrix": [
        1.0,
        0.0,
        0.0,
        0.0,
        0.0,
        1.0,
        0.0,
        0.0,
        0.0,
        0.0,
        1.0,
        0.0,
        0.0,
        1.4254543781280518,
        0.29390811920166016,
        1.0
      ],
      "name": "Mesh_24_24"
    },
    {
      "mesh": 24,
      "name": "Object_52"
    },
    {
      "children": [
        54
      ],
      "matrix": [
        1.0,
        0.0,
        0.0,
        0.0,
        0.0,
        1.0,
        0.0,
        0.0,
        0.0,
        0.0,
        1.0,
        0.0,
        0.0,
        1.4254543781280518,
        0.29390811920166016,
        1.0
      ],
      "name": "Mesh_25_25"
    },
    {
      "mesh": 25,
      "name": "Object_54"
    },
    {
      "children": [
        56
      ],
      "matrix": [
        1.0,
        0.0,
        0.0,
        0.0,
        0.0,
        1.0,
        0.0,
        0.0,
        0.0,
        0.0,
        1.0,
        0.0,
        0.0,
        1.4254543781280518,
        0.29390811920166016,
        1.0
      ],
      "name": "Mesh_26_26"
    },
    {
      "mesh": 26,
      "name": "Object_56"
    },
    {
      "children": [
        58
      ],
      "matrix": [
        1.0,
        0.0,
        0.0,
        0.0,
        0.0,
        1.0,
        0.0,
        0.0,
        0.0,
        0.0,
        1.0,
        0.0,
        0.0,
        1.4254543781280518,
        0.29390811920166016,
        1.0
      ],
      "name": "Mesh_27_27"
    },
    {
      "mesh": 27,
      "name": "Object_58"
    },
    {
      "children": [
        60
      ],
      "matrix": [
        1.0,
        0.0,
        0.0,
        0.0,
        0.0,
        1.0,
        0.0,
        0.0,
        0.0,
        0.0,
        1.0,
        0.0,
        0.0,
        1.4254543781280518,
        0.29390811920166016,
        1.0
      ],
      "name": "Mesh_28_28"
    },
    {
      "mesh": 28,
      "name": "Object_60"
    },
    {
      "children": [
        62
      ],
      "matrix": [
        1.0,
        0.0,
        0.0,
        0.0,
        0.0,
        1.0,
        0.0,
        0.0,
        0.0,
        0.0,
        1.0,
        0.0,
        0.0,
        1.4254543781280518,
        0.29390811920166016,
        1.0
      ],
      "name": "Mesh_29_29"
    },
    {
      "mesh": 29,
      "name": "Object_62"
    },
    {
      "children": [
        64,
        65
      ],
      "matrix": [
        1.0,
        0.0,
        0.0,
        0.0,
        0.0,
        1.0,
        0.0,
        0.0,
        0.0,
        0.0,
        1.0,
        0.0,
        0.0,
        1.4254543781280518,
        0.29390811920166016,
        1.0
      ],
      "name": "Mesh_30_30"
    },
    {
      "mesh": 30,
      "name": "Object_64"
    },
    {
      "mesh": 31,
      "name": "Object_65"
    },
    {
      "children": [
        67
      ],
      "matrix": [
        1.0,
        0.0,
        0.0,
        0.0,
        0.0,
        1.0,
        0.0,
        0.0,
        0.0,
        0.0,
        1.0,
        0.0,
        0.0,
        1.4254543781280518,
        0.29390811920166016,
        1.0
      ],
      "name": "Mesh_31_31"
    },
    {
      "mesh": 32,
      "name": "Object_67"
    },
    {
      "children": [
        69
      ],
      "matrix": [
        1.0,
        0.0,
        0.0,
        0.0,
        0.0,
        1.0,
        0.0,
        0.0,
        0.0,
        0.0,
        1.0,
        0.0,
        0.0,
        1.4254543781280518,
        0.29390811920166016,
        1.0
      ],
      "name": "Mesh_32_32"
    },
    {
      "mesh": 33,
      "name": "Object_69"
    },
    {
      "children": [
        71
      ],
      "matrix": [
        1.0,
        0.0,
        0.0,
        0.0,
        0.0,
        1.0,
        0.0,
        0.0,
        0.0,
        0.0,
        1.0,
        0.0,
        0.0,
        1.4254543781280518,
        0.29390811920166016,
        1.0
      ],
      "name": "Mesh_33_33"
    },
    {
      "mesh": 34,
      "name": "Object_71"
    },
    {
      "children": [
        73
      ],
      "matrix": [
        1.0,
        0.0,
        0.0,
        0.0,
        0.0,
        1.0,
        0.0,
        0.0,
        0.0,
        0.0,
        1.0,
        0.0,
        0.0,
        1.4254543781280518,
        0.29390811920166016,
        1.0
      ],
      "name": "Mesh_34_34"
    },
    {
      "mesh": 35,
      "name": "Object_73"
    },
    {
      "children": [
        75
      ],
      "matrix": [
        1.0,
        0.0,
        0.0,
        0.0,
        0.0,
        1.0,
        0.0,
        0.0,
        0.0,
        0.0,
        1.0,
        0.0,
        0.0,
        1.4254543781280518,
        0.29390811920166016,
        1.0
      ],
      "name": "Mesh_35_35"
    },
    {
      "mesh": 36,
      "name": "Object_75"
    },
    {
      "children": [
        77
      ],
      "matrix": [
        1.0,
        0.0,
        0.0,
        0.0,
        0.0,
        1.0,
        0.0,
        0.0,
        0.0,
        0.0,
        1.0,
        0.0,
        0.0,
        1.4254543781280518,
        0.29390811920166016,
        1.0
      ],
      "name": "Mesh_37_36"
    },
    {
      "mesh": 37,
      "name": "Object_77"
    },
    {
      "children": [
        79
      ],
      "matrix": [
        1.0,
        0.0,
        0.0,
        0.0,
        0.0,
        1.0,
        0.0,
        0.0,
        0.0,
        0.0,
        1.0,
        0.0,
        0.0,
        1.4254543781280518,
        0.29390811920166016,
        1.0
      ],
      "name": "Mesh_38_37"
    },
    {
      "mesh": 38,
      "name": "Object_79"
    },
    {
      "children": [
        81
      ],
      "matrix": [
        1.0,
        0.0,
        0.0,
        0.0,
        0.0,
        1.0,
        0.0,
        0.0,
        0.0,
        0.0,
        1.0,
        0.0,
        0.0,
        1.4254543781280518,
        0.29390811920166016,
        1.0
      ],
      "name": "Mesh_39_38"
    },
    {
      "mesh": 39,
      "name": "Object_81"
    },
    {
      "children": [
        83
      ],
      "matrix": [
        1.0,
        0.0,
        0.0,
        0.0,
        0.0,
        1.0,
        0.0,
        0.0,
        0.0,
        0.0,
        1.0,
        0.0,
        0.0,
        1.4254543781280518,
        0.29390811920166016,
        1.0
      ],
      "name": "Mesh_40_39"
    },
    {
      "mesh": 40,
      "name": "Object_83"
    },
    {
      "children": [
        85,
        86
      ],
      "matrix": [
        1.0,
        0.0,
        0.0,
        0.0,
        0.0,
        1.0,
        0.0,
        0.0,
        0.0,
        0.0,
        1.0,
        0.0,
        0.0,
        1.4254543781280518,
        0.29390811920166016,
        1.0
      ],
      "name": "Mesh_41_40"
    },
    {
      "mesh": 41,
      "name": "Object_85"
    },
    {
      "mesh": 42,
      "name": "Object_86"
    },
    {
      "children": [
        88,
        89
      ],
      "matrix": [
        1.0,
        0.0,
        0.0,
        0.0,
        0.0,
        1.0,
        0.0,
        0.0,
        0.0,
        0.0,
        1.0,
        0.0,
        0.0,
        1.4254543781280518,
        0.29390811920166016,
        1.0
      ],
      "name": "Mesh_42_41"
    },
    {
      "mesh": 43,
      "name": "Object_88"
    },
    {
      "mesh": 44,
      "name": "Object_89"
    },
    {
      "children": [
        91
      ],
      "matrix": [
        1.0,
        0.0,
        0.0,
        0.0,
        0.0,
        1.0,
        0.0,
        0.0,
        0.0,
        0.0,
        1.0,
        0.0,
        0.0,
        1.4254543781280518,
        0.29390811920166016,
        1.0
      ],
      "name": "Mesh_43_42"
    },
    {
      "mesh": 45,
      "name": "Object_91"
    },
    {
      "children": [
        93
      ],
      "matrix": [
        1.0,
        0.0,
        0.0,
        0.0,
        0.0,
        1.0,
        0.0,
        0.0,
        0.0,
        0.0,
        1.0,
        0.0,
        0.0,
        1.4254543781280518,
        0.29390811920166016,
        1.0
      ],
      "name": "Mesh_44_43"
    },
    {
      "mesh": 46,
      "name": "Object_93"
    }
  ],
  "samplers": [
    {
      "magFilter": 9729,
      "minFilter": 9987,
      "wrapS": 10497,
      "wrapT": 10497
    }
  ],
  "scene": 0,
  "scenes": [
    {
      "name": "Sketchfab_Scene",
      "nodes": [
        0
      ]
    }
  ],
  "textures": [
    {
      "sampler": 0,
      "source": 0
    },
    {
      "sampler": 0,
      "source": 1
    },
    {
      "sampler": 0,
      "source": 2
    },
    {
      "sampler": 0,
      "source": 3
    },
    {
      "sampler": 0,
      "source": 4
    },
    {
      "sampler": 0,
      "source": 5
    },
    {
      "sampler": 0,
      "source": 6
    }
  ]
}
